<svg id="Layer_1" xmlns="http://www.w3.org/2000/svg" viewBox="0 0 179.8 64"><style>.st0{fill:#FAD347;}</style><path d="M15.5 12.9h35.6L43.4 0H19.7l-4.2 12.9zm85 3.4H65l-7.6 7.3-4.3-7.3H14.3L5.5 43.1h23.7l5.4-16.3 9.7 16.3h11.9l17.2-16.3L68 43.1h23.7l8.8-26.8zm55.6 11.9l-.1.5-.2.5-.3.4-.4.4-.5.2h-29.3l1.1-3.4h29.3l.2.4.1.5v.5zm23.7-3.7v-1l-.1-1.1-.3-1-.4-.9-.5-.9-.7-.8-.8-.7-.8-.6-.9-.5-1-.3-1-.2-1.1-.1.7-.9.6-1 .5-1.1.3-1.1.2-1.2V9.9l-.1-1.2-.2-1.2-.4-1.1-.5-1.1-.7-1-.7-.9-.9-1-.9-.7-1-.6-1.1-.5-1.2-.4-1.2-.2H82.2L68.6 12.9h91.6l.2.5.1.5v.5l-.1.5-.2.5-.3.4-.4.3-.4.2h-53L97.3 43H166l1.4-.2 1.3-.4 1.2-.5 1.2-.6 1.1-.7 1.1-.8.9-.9.8-1.1.8-1.1.6-1.2.5-1.3 2.5-7.7.3-1 .1-1zM161.5 58.5l-1.8 5.5h1.7l1.2-3.7 2.7 3.7h1.8l1.8-5.5h-1.7l-1.2 3.7-2.6-3.7h-1.9m-8 1.9c.3-.4.7-.6 1.1-.6h2.3c.2 0 .3 0 .3.1.4.2.5.5.3.9l-.3 1.1s0 .1-.1.2c-.3.5-.7.7-1.1.7h-2.4c-.2 0-.3 0-.3-.1-.4-.2-.5-.5-.3-.9l.3-1c.1-.2.1-.3.2-.4m-.5-1.7c-.6.3-1.1.7-1.2 1.3l-.8 2.6c-.1.2-.1.4 0 .7.2.5.6.8 1.2.8h4.4c.3 0 .6-.1 1-.2.6-.3 1.1-.7 1.2-1.3l.8-2.5c.1-.3.1-.6 0-.9-.2-.4-.6-.6-1.2-.6H154c-.3-.1-.6 0-1 .1m-3.9-.2l-1.8 5.5h1.7l1.8-5.5h-1.7m-8 0l-.4 1.3h2.3l-1.4 4.2h1.7l1.4-4.2h2.3l.4-1.3h-6.3c.1 0 0 0 0 0m-9.1 0l-1.3 4c-.1.3-.1.6.1.9.3.4.6.6 1.1.6h4.4c.2 0 .5-.1.8-.2.7-.3 1.2-.8 1.3-1.3l1.3-4H138l-1 3.2c0 .1-.1.3-.2.4-.3.4-.7.6-1.1.6h-2.3c-.1 0-.3 0-.4-.1-.4-.2-.5-.5-.3-.9l1-3.2H132m-7.1 0l-1.8 5.5h5.6l.4-1.3h-3.9l1.4-4.2h-1.7m-8.1 1.9c.3-.4.7-.6 1.1-.6h2.3c.2 0 .3 0 .3.1.4.2.5.5.3.9l-.3 1.1s0 .1-.1.2c-.3.5-.7.7-1.1.7H117c-.2 0-.3 0-.3-.1-.4-.2-.5-.5-.3-.9l.3-1c0-.2.1-.3.1-.4m-.4-1.7c-.6.3-1.1.7-1.2 1.3l-.8 2.6c-.1.2-.1.4 0 .7.2.5.6.8 1.2.8h4.4c.3 0 .6-.1 1-.2.6-.3 1.1-.7 1.2-1.3l.8-2.5c.1-.3.1-.6 0-.9-.2-.4-.6-.6-1.2-.6h-4.4c-.4-.1-.7 0-1 .1m-10.4-.2l1 4.2c.2.9.3 1.3.3 1.3h2s1.7-1.9 4.9-5.5h-1.8s-1.2 1.3-3.6 4c-.3-1-.4-1.5-.4-1.5l-.6-2.4-1.8-.1zm-7.6 0L96.6 64h6.1l.4-1.3h-4.4l.3-.9h4.4l.4-1.2h-4.4l.3-.9h4.4l.4-1.3-6.1.1m-13.3.2c-.7.3-1.2.8-1.4 1.3l-.8 2.5c-.1.2-.1.4 0 .6.2.6.6.9 1.3.9H90l.7-2.3H89l-.3 1h-3.5c-.3-.2-.4-.5-.3-.9l.3-1c0-.1.1-.2.1-.3.3-.4.7-.6 1.1-.6h4.8l.4-1.3h-5.9c-.1-.1-.3-.1-.6.1m-9.8-.2L73.6 64h1.7l1.2-3.7 2.7 3.7H81l1.8-5.5H81l-1.2 3.7-2.6-3.7h-1.9m-3.2 0L70.3 64H72l1.8-5.5h-1.7m-8.2 0L62.1 64h1.7l.7-2.1h3.2l-.6 2.1h1.7l1.8-5.5H69l-.7 2.1H65l.7-2.1h-1.8m-7.9.2c-.6.3-1 .8-1.2 1.3l-.1.4c-.1.2-.1.5 0 .7.2.5.6.8 1.2.8H59.2c.2.1.3.2.2.4 0 .1-.1.1-.1.2-.1.2-.3.2-.5.2h-4.9l-.4 1.3h5.4c.1 0 .3 0 .5-.1.9-.3 1.5-.8 1.7-1.5l.1-.3c.1-.2.1-.5 0-.7-.2-.5-.6-.8-1.2-.8h-3.3c-.2-.1-.3-.2-.2-.4 0 0 0-.1.1-.1.1-.2.3-.3.5-.3H62l.4-1.3H57c-.3 0-.7.1-1 .2m-9.9-.2l-1.3 4c-.1.3-.1.6.1.9.3.4.6.6 1.1.6h4.4c.2 0 .5-.1.8-.2.7-.3 1.2-.8 1.3-1.3l1.3-4h-1.7l-1 3.2c0 .1-.1.3-.2.4-.3.4-.7.6-1.1.6h-2.3c-.1 0-.3 0-.4-.1-.4-.2-.5-.5-.3-.9l1-3.2h-1.7m-4.3 1.3h.2c.2.1.3.3.2.7 0 .1-.1.1-.1.2-.2.3-.5.5-.8.5h-2.5l.4-1.4h2.6zm-3.9-1.3L36.1 64h1.7l.5-1.5h2l.1.2c.1.9.2 1.3.3 1.4h2.2c-.3-.9-.5-1.5-.5-1.6 0 0 .1 0 .2-.1.7-.3 1.1-.8 1.3-1.3l.3-1c.1-.3.1-.6 0-.8-.2-.4-.6-.7-1.2-.7l-5.1-.1m-8 .3c-.6.3-.9.7-1.1 1.1l-.8 2.6c-.1.2-.1.5 0 .7.2.5.6.8 1.3.8h5.4l.4-1.2h-4.4c-.2 0-.3 0-.3-.1-.4-.2-.5-.5-.3-.9l.3-1c0-.1.1-.2.1-.3.3-.5.7-.7 1.2-.7H36l.4-1.3H31c-.3 0-.7.1-1.1.3m-13.4-.3L14.8 64h6.1l.4-1.3H17l.3-.9h4.4l.4-1.2h-4.4l.3-.9h4.4l.4-1.3-6.3.1c.1 0 .1 0 0 0m-8.2 0L6.6 64h1.7l.7-2.2h3.2l-.6 2.2h1.7l1.8-5.5h-1.7l-.7 2.1H9.4l.7-2.1H8.3M0 59.8h2.3L1 64h1.7l1.4-4.2h2.3l.4-1.3H.4L0 59.8"/><path class="st0" d="M172.5 48.1l-1.9 5.2H2.1l1.7-5.2z"/><path d="M177.3 1.9h.4c.2 0 .3 0 .4-.1.1-.1.1-.1.1-.2s0-.1-.1-.2c0-.1-.1-.1-.1-.1h-.8v.6zm-.4 1.3V1h.8c.3 0 .4 0 .6.1.1 0 .2.1.3.2.1.1.1.2.1.3 0 .2-.1.3-.2.4-.1.1-.3.2-.5.2.1 0 .1.1.2.1.1.1.2.2.3.4l.3.4h-.4l-.2-.3c-.2-.3-.3-.4-.4-.5-.1-.1-.2-.1-.3-.1h-.2v.9h-.4zm.9-2.9c-.3 0-.6.1-.8.2-.3.1-.5.4-.6.6-.2.3-.2.6-.2.8 0 .3.1.6.2.8.2.3.4.5.6.6.3.1.5.2.8.2.3 0 .6-.1.8-.2.3-.1.5-.4.6-.6.1-.3.2-.5.2-.8 0-.3-.1-.6-.2-.8-.2-.3-.4-.5-.6-.6-.2-.1-.5-.2-.8-.2m0-.3c.3 0 .7.1 1 .3.3.2.6.4.8.8.2.3.3.7.3 1 0 .3-.1.7-.3 1-.2.3-.4.6-.8.8-.3.2-.7.3-1 .3-.4 0-.7-.1-1-.3-.3-.2-.6-.4-.8-.8-.2-.3-.3-.7-.3-1 0-.4.1-.7.3-1 .2-.3.4-.6.8-.8.3-.2.7-.3 1-.3"/></svg>